<svg width="161" height="148" viewBox="0 0 161 148" fill="none" xmlns="http://www.w3.org/2000/svg">
<path d="M119.783 135.496C101.121 144.097 81.4349 147.374 61.428 147.917C47.3437 146.634 32.3173 130.865 21.4992 121.347C13.4196 114.238 3.71721 93.8824 1.60299 84.0002C-3.38369 60.6919 3.36428 43.6724 20.452 30.859C43.0596 13.9066 70.5226 -3.43185 98.8401 0.586649C118.969 3.44305 125.117 5.42097 135.94 22.9619C149.616 45.1271 165.957 74.1913 159.576 102.262C155.884 118.503 131.685 130.011 119.783 135.496Z" fill="#33658A"/>
<path d="M59.95 94.5C52.7833 94.5 47.5 92.85 44.1 89.55C40.7 86.25 39 81.6667 39 75.8C39 69.9667 40.7 65.4167 44.1 62.15C47.5333 58.85 52.8167 57.2 59.95 57.2C67.0833 57.2 72.35 58.85 75.75 62.15C79.15 65.4167 80.85 69.9667 80.85 75.8C80.85 81.6667 79.15 86.25 75.75 89.55C72.35 92.85 67.0833 94.5 59.95 94.5ZM60 85.75C63.0667 85.75 65.3 84.8167 66.7 82.95C68.1 81.05 68.8 78.6667 68.8 75.8C68.8 72.9667 68.1 70.6167 66.7 68.75C65.3 66.85 63.0667 65.9 60 65.9C56.8333 65.9 54.5333 66.85 53.1 68.75C51.7 70.6167 51 72.9667 51 75.8C51 78.6333 51.7 81 53.1 82.9C54.5333 84.8 56.8333 85.75 60 85.75ZM115.25 75.6C116.45 75.3667 117.633 75.25 118.8 75.25C120.833 75.25 122.483 75.6 123.75 76.3C125.05 76.9667 125.983 77.8333 126.55 78.9C127.116 79.9333 127.4 81.0167 127.4 82.15C127.4 84.7833 126.533 87.0333 124.8 88.9C123.066 90.7333 120.716 92.1333 117.75 93.1C114.783 94.0333 111.483 94.5 107.85 94.5C97.3163 94.5 90.4996 90.8333 87.3996 83.5L90.1996 82.8C92.2663 82.3 94.0163 81.8333 95.4496 81.4C96.9163 80.9333 98.1996 80.4167 99.2996 79.85C99.9663 81.5167 100.916 82.7167 102.15 83.45C103.416 84.15 105.15 84.5 107.35 84.5C109.683 84.5 111.583 84.2333 113.05 83.7C114.516 83.1667 115.25 82.3667 115.25 81.3C115.25 80.7333 114.966 80.3 114.4 80C113.833 79.7 112.933 79.5 111.7 79.4C110.466 79.2667 108.733 79.2 106.5 79.2H102.7V70.45H105C107.533 70.45 109.6 70.35 111.2 70.15C112.8 69.9167 113.6 69.4333 113.6 68.7C113.6 67.8667 113.166 67.2 112.3 66.7C111.466 66.1667 110.15 65.9 108.35 65.9C106.016 65.9 104.116 66.3833 102.65 67.35C101.216 68.3167 100.1 69.7167 99.2996 71.55C95.7329 70.1167 91.9329 69.1 87.8996 68.5C89.4996 64.9 91.9496 62.1167 95.2496 60.15C98.5829 58.1833 102.866 57.2 108.1 57.2C111.5 57.2 114.55 57.65 117.25 58.55C119.983 59.4167 122.116 60.6333 123.65 62.2C125.216 63.7667 126 65.5167 126 67.45C126 68.5833 125.733 69.6 125.2 70.5C124.666 71.3667 123.616 72.2333 122.05 73.1C120.483 73.9333 118.216 74.7667 115.25 75.6Z" fill="white"/>
</svg>
