<svg width="161" height="149" viewBox="0 0 161 149" fill="none" xmlns="http://www.w3.org/2000/svg">
<path d="M119.783 135.996C101.121 144.597 81.4349 147.874 61.428 148.417C47.3437 147.134 32.3173 131.365 21.4992 121.847C13.4196 114.738 3.71721 94.3824 1.60299 84.5002C-3.38369 61.1919 3.36428 44.1724 20.452 31.359C43.0596 14.4066 70.5226 -2.93185 98.8401 1.08665C118.969 3.94305 125.117 5.92097 135.94 23.4619C149.616 45.6271 165.957 74.6913 159.576 102.762C155.884 119.003 131.685 130.511 119.783 135.996Z" fill="#33658A"/>
<path d="M59.95 95C52.7833 95 47.5 93.35 44.1 90.05C40.7 86.75 39 82.1667 39 76.3C39 70.4667 40.7 65.9167 44.1 62.65C47.5333 59.35 52.8167 57.7 59.95 57.7C67.0833 57.7 72.35 59.35 75.75 62.65C79.15 65.9167 80.85 70.4667 80.85 76.3C80.85 82.1667 79.15 86.75 75.75 90.05C72.35 93.35 67.0833 95 59.95 95ZM60 86.25C63.0667 86.25 65.3 85.3167 66.7 83.45C68.1 81.55 68.8 79.1667 68.8 76.3C68.8 73.4667 68.1 71.1167 66.7 69.25C65.3 67.35 63.0667 66.4 60 66.4C56.8333 66.4 54.5333 67.35 53.1 69.25C51.7 71.1167 51 73.4667 51 76.3C51 79.1333 51.7 81.5 53.1 83.4C54.5333 85.3 56.8333 86.25 60 86.25ZM107.45 85.25C110.45 85.1833 112.666 85.1167 114.1 85.05V94.5H87.6496V85.05C91.2496 85.1833 93.9663 85.25 95.7996 85.25V68C94.5996 70.6333 92.1496 72.3333 88.4496 73.1C88.3496 69.1667 87.9829 65.5833 87.3496 62.35C90.0163 61.9833 91.8663 61.5333 92.8996 61C93.9663 60.4333 94.7829 59.8167 95.3496 59.15C95.9496 58.4833 96.3496 58.0333 96.5496 57.8V57.7H107.45V85.25Z" fill="white"/>
</svg>
