<svg width="161" height="148" viewBox="0 0 161 148" fill="none" xmlns="http://www.w3.org/2000/svg">
<path d="M119.783 135.496C101.121 144.097 81.4349 147.374 61.428 147.917C47.3437 146.634 32.3173 130.865 21.4992 121.347C13.4196 114.238 3.71721 93.8824 1.60299 84.0002C-3.38369 60.6919 3.36428 43.6724 20.452 30.859C43.0596 13.9066 70.5226 -3.43185 98.8401 0.586649C118.969 3.44305 125.117 5.42097 135.94 22.9619C149.616 45.1271 165.957 74.1913 159.576 102.262C155.884 118.503 131.685 130.011 119.783 135.496Z" fill="#33658A"/>
<path d="M59.95 94.5C52.7833 94.5 47.5 92.85 44.1 89.55C40.7 86.25 39 81.6667 39 75.8C39 69.9667 40.7 65.4167 44.1 62.15C47.5333 58.85 52.8167 57.2 59.95 57.2C67.0833 57.2 72.35 58.85 75.75 62.15C79.15 65.4167 80.85 69.9667 80.85 75.8C80.85 81.6667 79.15 86.25 75.75 89.55C72.35 92.85 67.0833 94.5 59.95 94.5ZM60 85.75C63.0667 85.75 65.3 84.8167 66.7 82.95C68.1 81.05 68.8 78.6667 68.8 75.8C68.8 72.9667 68.1 70.6167 66.7 68.75C65.3 66.85 63.0667 65.9 60 65.9C56.8333 65.9 54.5333 66.85 53.1 68.75C51.7 70.6167 51 72.9667 51 75.8C51 78.6333 51.7 81 53.1 82.9C54.5333 84.8 56.8333 85.75 60 85.75ZM99.8996 85.25C110.733 84.65 119.133 83.9833 125.1 83.25C124.533 84.9833 124.1 86.8167 123.8 88.75C123.5 90.6833 123.35 92.4333 123.35 94H87.5996L87.5496 92.95C87.5496 89.6833 88.4996 86.85 90.3996 84.45C92.3329 82.05 95.0163 79.8333 98.4496 77.8C99.4496 77.2 101.016 76.4333 103.15 75.5C105.916 74.3 108.05 73.25 109.55 72.35C111.05 71.4167 111.8 70.5 111.8 69.6C111.8 68.4667 111.333 67.5667 110.4 66.9C109.466 66.2333 108.016 65.9 106.05 65.9C103.883 65.9 102.233 66.45 101.1 67.55C99.9996 68.65 99.4496 70.05 99.4496 71.75C99.4496 72.2833 99.4996 72.8333 99.5996 73.4C95.3996 72.8667 91.3163 72.5 87.3496 72.3C87.3496 69.4667 88.0829 66.9167 89.5496 64.65C91.0496 62.35 93.2829 60.5333 96.2496 59.2C99.2496 57.8667 102.916 57.2 107.25 57.2C111.216 57.2 114.516 57.75 117.15 58.85C119.816 59.9167 121.766 61.2833 123 62.95C124.266 64.5833 124.9 66.2667 124.9 68C124.9 70 124.45 71.7167 123.55 73.15C122.683 74.5833 121.416 75.8667 119.75 77C118.116 78.1 115.916 79.3 113.15 80.6C112.75 80.8 112.1 81.0333 111.2 81.3C110.3 81.5333 109.733 81.6833 109.5 81.75C107.133 82.45 105.25 83.0333 103.85 83.5C102.45 83.9667 101.133 84.55 99.8996 85.25Z" fill="white"/>
</svg>
