<svg width="61" height="60" viewBox="0 0 61 60" fill="none" xmlns="http://www.w3.org/2000/svg">
<path d="M30.5 5C44.307 5 55.5 16.1929 55.5 30C55.5 43.807 44.307 55 30.5 55C16.6929 55 5.5 43.807 5.5 30C5.5 16.1929 16.6929 5 30.5 5ZM38.5492 22.4242L27.375 33.5982L22.4508 28.6742C21.7186 27.942 20.5314 27.942 19.7992 28.6742C19.0669 29.4065 19.0669 30.5935 19.7992 31.3258L26.0492 37.5758C26.7815 38.308 27.9685 38.308 28.7008 37.5758L41.2008 25.0758C41.933 24.3436 41.933 23.1564 41.2008 22.4242C40.4685 21.6919 39.2815 21.6919 38.5492 22.4242Z" fill="#F8F7F5"/>
</svg>
