<svg width="61" height="60" viewBox="0 0 61 60" fill="none" xmlns="http://www.w3.org/2000/svg">
<path d="M31.1542 5.50427C30.4157 4.81487 29.2635 4.83472 28.5492 5.54917L24.3004 9.79792C21.4193 12.6791 18.1956 15.196 14.7017 17.2923C13.7169 17.8832 13.0507 18.8865 12.8883 20.0235L9.49883 43.75H7.375C6.33948 43.75 5.5 44.5895 5.5 45.625C5.5 46.6605 6.33948 47.5 7.375 47.5H53.625C54.6605 47.5 55.5 46.6605 55.5 45.625C55.5 44.5895 54.6605 43.75 53.625 43.75H51.5012L48.1245 20.1133C47.9505 18.8961 47.2125 17.8323 46.133 17.2435C42.297 15.1512 38.7397 12.584 35.5452 9.60255L31.1542 5.50427ZM35.7405 37.794C36.964 39.9697 38.548 42.1105 39.8628 43.75H21.2122C22.5504 42.105 24.1436 39.9457 25.2891 37.739C26.8433 34.7455 28.597 30.2702 29.9425 26.6145C30.1198 26.1325 30.2907 25.663 30.454 25.2107C30.6022 25.6365 30.758 26.0775 30.9202 26.5302C32.224 30.1697 33.987 34.675 35.7405 37.794Z" fill="#F8F7F5"/>
</svg>
