<svg width="61" height="60" viewBox="0 0 61 60" fill="none" xmlns="http://www.w3.org/2000/svg">
<path d="M42.3115 5.54917C43.0435 4.81694 44.2307 4.81694 44.963 5.54917L54.963 15.5492C55.6952 16.2814 55.6952 17.4686 54.963 18.2008C54.2307 18.933 53.0435 18.933 52.3115 18.2008L51.1357 17.0252L46.9017 21.2501L53.0757 27.4242C53.808 28.1565 53.808 29.3435 53.0757 30.0757C52.3435 30.808 51.1565 30.808 50.4242 30.0757L46.75 26.4017L29.6475 43.5042C27.8892 45.2622 25.5047 46.25 23.0184 46.25H16.9016L8.70082 54.4507C7.96859 55.183 6.78139 55.183 6.04917 54.4507C5.31694 53.7185 5.31694 52.5315 6.04917 51.7992L14.25 43.5982V37.4815C14.25 34.9952 15.2377 32.6107 16.9959 30.8525L17.8483 30L21.6742 33.8257C22.4064 34.558 23.5936 34.558 24.3258 33.8257C25.058 33.0935 25.058 31.9065 24.3258 31.1742L20.5 27.3482L22.8483 25L26.6742 28.8257C27.4065 29.558 28.5935 29.558 29.3257 28.8257C30.058 28.0935 30.058 26.9065 29.3257 26.1742L25.5 22.3483L27.8482 20L31.6742 23.8258C32.4065 24.558 33.5935 24.558 34.3257 23.8258C35.058 23.0936 35.058 21.9064 34.3257 21.1742L30.5 17.3483L34.0982 13.75L30.4242 10.0758C29.692 9.34359 29.692 8.15639 30.4242 7.42417C31.1565 6.69194 32.3435 6.69194 33.0757 7.42417L39.25 13.5984L43.484 9.37354L42.3115 8.20082C41.5792 7.46859 41.5792 6.28139 42.3115 5.54917ZM48.484 14.3735L46.1357 12.0252L41.9017 16.2501L44.25 18.5984L48.484 14.3735Z" fill="#F8F7F5"/>
</svg>
