<svg width="61" height="60" viewBox="0 0 61 60" fill="none" xmlns="http://www.w3.org/2000/svg">
<path d="M10.5 11.25C10.5 7.79822 13.2982 5 16.75 5H45.5C48.9518 5 51.75 7.79822 51.75 11.25V46.875C51.75 47.9105 50.9105 48.75 49.875 48.75H14.25C14.25 50.1307 15.3693 51.25 16.75 51.25H49.875C50.9105 51.25 51.75 52.0895 51.75 53.125C51.75 54.1605 50.9105 55 49.875 55H16.75C13.2982 55 10.5 52.2018 10.5 48.75V11.25ZM26.878 15.9191C22.9529 17.5526 20.093 21.2316 19.6288 25.625H24.8955C24.9987 22.5011 25.4859 19.6332 26.2617 17.4167C26.4443 16.8951 26.649 16.3917 26.878 15.9191ZM35.2268 15.6296C35.5153 16.1841 35.768 16.7871 35.9883 17.4167C36.764 19.6332 37.2513 22.5011 37.3545 25.625H43.2462C42.7522 20.9489 39.5443 17.0823 35.2268 15.6296ZM33.6022 25.625C33.5002 22.8451 33.0635 20.4119 32.4487 18.6556C32.0933 17.6394 31.7128 16.9507 31.3835 16.5527C31.2695 16.4151 31.183 16.3358 31.125 16.2911C31.067 16.3358 30.9805 16.4151 30.8665 16.5527C30.5372 16.9507 30.1567 17.6394 29.8013 18.6556C29.1865 20.4119 28.7498 22.8451 28.6478 25.625H33.6022ZM28.7175 29.375C28.8875 31.6335 29.2805 33.6068 29.8013 35.0945C30.1567 36.1105 30.5372 36.7992 30.8665 37.1973C30.9805 37.335 31.067 37.4142 31.125 37.459C31.183 37.4142 31.2695 37.335 31.3835 37.1973C31.7128 36.7992 32.0933 36.1105 32.4487 35.0945C32.9695 33.6068 33.3625 31.6335 33.5325 29.375H28.7175ZM24.9581 29.375H19.8235C20.6443 33.2255 23.3315 36.385 26.8927 37.8615C26.6578 37.38 26.4482 36.8663 26.2617 36.3333C25.5907 34.416 25.1355 32.0112 24.9581 29.375ZM35.2112 38.15C39.1527 36.83 42.1725 33.4988 43.0515 29.375H37.292C37.1145 32.0112 36.6593 34.416 35.9883 36.3333C35.764 36.974 35.5062 37.5875 35.2112 38.15ZM31.202 37.5088C31.209 37.5107 31.2122 37.5125 31.2122 37.5125L31.202 37.5088Z" fill="#F8F7F5"/>
</svg>
