<svg width="61" height="60" viewBox="0 0 61 60" fill="none" xmlns="http://www.w3.org/2000/svg">
<path d="M12.6347 20.3642C12.8443 20.5745 13.04 20.7972 13.2207 21.0307C13.7129 21.6666 14.0946 22.3833 14.3475 23.1509L15.4669 26.5928C15.5606 26.858 15.7343 27.0877 15.9641 27.2502C16.1939 27.4128 16.4685 27.5 16.75 27.5C17.0315 27.5 17.3061 27.4128 17.5359 27.2502C17.7409 27.1052 17.9013 26.9068 18 26.6772C18.0119 26.6495 18.023 26.6215 18.0331 26.5928L19.1525 23.1509C19.5006 22.1045 20.0882 21.1537 20.8685 20.374C21.6488 19.5942 22.6004 19.0071 23.6476 18.6593L27.092 17.5407C27.3575 17.4471 27.5875 17.2736 27.75 17.0439C27.9127 16.8143 28 16.5399 28 16.2586C28 15.9773 27.9127 15.7029 27.75 15.4733C27.5875 15.2437 27.3575 15.0701 27.092 14.9765L27.0232 14.9593L23.5787 13.8407C22.5315 13.4929 21.58 12.9057 20.7996 12.126C20.0193 11.3463 19.4318 10.3955 19.0837 9.34907L17.9642 5.90723C17.8705 5.64195 17.6968 5.41225 17.467 5.24975C17.2372 5.08725 16.9626 5 16.6811 5C16.3996 5 16.125 5.08725 15.8952 5.24975C15.6654 5.41225 15.4917 5.64195 15.3981 5.90723L14.2786 9.34907L14.25 9.4343C13.9057 10.4399 13.3393 11.3556 12.5925 12.1134C11.8247 12.8926 10.8868 13.4838 9.85242 13.8407L6.40792 14.9593C6.14245 15.0529 5.91255 15.2264 5.74995 15.4561C5.58733 15.6857 5.5 15.9601 5.5 16.2414C5.5 16.5227 5.58733 16.7971 5.74995 17.0267C5.91255 17.2563 6.14245 17.4299 6.40792 17.5235L9.85242 18.6421C10.9014 18.9916 11.8542 19.5814 12.6347 20.3642ZM50.4998 17.5C51.8805 17.5 52.9998 18.6193 52.9998 20V32.5C52.9998 33.8808 51.8805 35 50.4998 35C49.119 35 47.9998 33.8808 47.9998 32.5V26.0355L33.5175 40.5177C33.0485 40.9865 32.4128 41.25 31.7498 41.25C31.0868 41.25 30.4508 40.9865 29.982 40.5177L25.4997 36.0355L12.2675 49.2677C11.2911 50.244 9.70825 50.244 8.73192 49.2677C7.75562 48.2915 7.75562 46.7085 8.73192 45.7323L23.7319 30.7323C24.2008 30.2633 24.8366 30 25.4997 30C26.1628 30 26.7987 30.2633 27.2675 30.7323L31.7498 35.2145L44.4642 22.5L37.9997 22.5C36.619 22.5 35.4998 21.3807 35.4998 20C35.4998 18.6193 36.619 17.5 37.9997 17.5L50.4998 17.5ZM50.5438 44.9115L52.4572 45.533L52.4955 45.5425C52.643 45.5945 52.7707 45.691 52.8613 45.8185C52.9515 45.946 53 46.0985 53 46.2547C53 46.411 52.9515 46.5635 52.8613 46.691C52.7707 46.8187 52.643 46.915 52.4955 46.967L50.582 47.5885C50.0003 47.7817 49.4715 48.108 49.038 48.541C48.6045 48.9743 48.2782 49.5025 48.0847 50.0838L47.4628 51.996C47.4108 52.1433 47.3143 52.271 47.1865 52.3613C47.059 52.4515 46.9065 52.5 46.75 52.5C46.5935 52.5 46.441 52.4515 46.3135 52.3613C46.1857 52.271 46.0892 52.1433 46.0372 51.996L45.4153 50.0838C45.2233 49.5008 44.8973 48.9705 44.4638 48.5358C44.03 48.1008 43.5007 47.7733 42.918 47.579L41.0045 46.9575C40.857 46.9055 40.7293 46.809 40.6387 46.6815C40.5485 46.554 40.5 46.4015 40.5 46.2453C40.5 46.089 40.5485 45.9365 40.6387 45.809C40.7293 45.6813 40.857 45.585 41.0045 45.533L42.918 44.9115C43.4927 44.7132 44.0137 44.3847 44.4402 43.952C44.8667 43.519 45.1875 42.9935 45.377 42.4162L45.999 40.504C46.051 40.3567 46.1475 40.229 46.275 40.1387C46.4027 40.0485 46.5552 40 46.7117 40C46.8682 40 47.0207 40.0485 47.1483 40.1387C47.276 40.229 47.3725 40.3567 47.4245 40.504L48.0465 42.4162C48.2397 42.9975 48.5662 43.5257 48.9998 43.959C49.4333 44.392 49.962 44.7183 50.5438 44.9115Z" fill="#F8F7F5"/>
</svg>
