<svg width="61" height="60" viewBox="0 0 61 60" fill="none" xmlns="http://www.w3.org/2000/svg">
<path d="M18.6177 55L18.5898 54.9998H14.9906C9.7491 54.9998 5.5 50.7483 5.5 45.504C5.5 43.0988 6.41222 40.783 8.05245 39.0248L10.8903 35.9825C12.8001 33.935 13.438 31.0065 12.5529 28.3498C12.1778 27.2238 11.5459 26.2008 10.7072 25.3618L7.92285 22.5759C7.191 21.8436 7.19098 20.6565 7.9228 19.9242C8.6546 19.192 9.84113 19.1919 10.573 19.9242L13.3573 22.7099C14.6075 23.9608 15.5494 25.4858 16.1085 27.1638C17.4278 31.1243 16.477 35.4893 13.6302 38.541L10.7924 41.5833C9.7999 42.6473 9.2479 44.0485 9.2479 45.504C9.2479 48.6773 11.819 51.2498 14.9906 51.2498H16.6847C16.6775 50.5388 16.6823 49.6638 16.7155 48.668C16.8057 45.9595 17.1068 42.3123 17.964 38.6365C18.8158 34.9838 20.2516 31.1485 22.7121 28.1943C24.892 25.5768 27.8497 23.6917 31.7355 23.233V12.875C31.7355 8.52575 35.2592 5 39.606 5C41.469 5 42.9792 6.51105 42.9792 8.375V10H47.0688C49.4468 10 51.6555 11.2302 52.9085 13.2523L54.4577 15.7523C57.1872 20.1573 54.2462 25.8 49.2257 26.2245V49.375C49.2257 52.4815 46.7088 55 43.6038 55H41.7297V49.375C41.7297 44.1973 37.5348 40 32.36 40H29.2368C28.2018 40 27.3628 40.8395 27.3628 41.875C27.3628 42.9105 28.2018 43.75 29.2368 43.75H32.36C35.465 43.75 37.982 46.2685 37.982 49.375V55H18.6177Z" fill="#F8F7F5"/>
</svg>
