<svg width="80" height="46" viewBox="0 0 80 46" fill="none" xmlns="http://www.w3.org/2000/svg">
<path d="M79.9994 30.8823H72.0303L71.8292 31.36H73.2118V33.7733C73.48 33.237 73.7984 32.4661 74.1671 31.4605L76.1279 32.818V31.5359H79.9491V45.5384H76.1279V45.1614H66.2231V45.5384H62.402V39.2788C62.05 41.0721 61.6143 43.1586 61.0947 45.5384C58.8825 45.0021 57.2317 44.6418 56.1423 44.4575C57.0473 41.8933 57.7931 39.0609 58.3797 35.9604L60.0892 36.237C59.0166 35.6671 57.7764 35.1895 56.3686 34.804L58.6814 30.9577C59.1674 31.0918 59.6367 31.2594 60.0892 31.4605C60.5417 31.6449 61.0947 31.8963 61.7484 32.2147L62.402 32.5164V31.5359H66.2231V33.5219L66.5751 32.2147L67.9577 32.7426L67.5806 32.265L68.3599 30.8823H62.3517V30.1533L61.6478 31.6365C59.9551 30.832 58.1618 30.2455 56.268 29.8768L58.3797 25.8545C59.1674 26.0556 60.2149 26.4327 61.5221 26.9858L62.3517 27.3126V26.5584H79.9994V30.8823ZM70.0946 33.7985C69.9772 33.8152 69.8348 33.9074 69.6672 34.075L68.9884 35.709C69.3236 35.5079 69.575 35.3487 69.7426 35.2314L70.1197 37.5191C70.1197 35.6252 70.1113 34.385 70.0946 33.7985ZM73.2118 34.7537V35.2063C74.0498 35.709 75.0218 36.4297 76.1279 37.3682V33.9744C75.9436 34.3767 75.7592 34.737 75.5749 35.0554C75.4073 35.3738 75.2146 35.6839 74.9967 35.9856L73.2118 34.7537ZM62.402 34.075L61.0696 36.4129L62.402 36.6392V34.075ZM67.9577 36.2621C67.1198 35.9772 66.5416 35.8012 66.2231 35.7342V37.0163C66.7594 36.8319 67.3376 36.5805 67.9577 36.2621ZM70.1197 38.7257C69.8348 38.9604 69.4074 39.262 68.8376 39.6307C69.3236 39.614 69.6337 39.5972 69.7677 39.5805C69.9186 39.5637 70.0191 39.505 70.0694 39.4045C70.1197 39.2872 70.1365 39.0609 70.1197 38.7257ZM75.3235 41.2145C74.6364 40.3263 73.9325 39.5888 73.2118 39.0023C73.195 39.8235 72.9856 40.5609 72.5833 41.2145H75.3235ZM66.2231 41.2145H69.0387C68.9046 40.4771 68.7789 39.9827 68.6616 39.7313C67.8739 40.2006 67.0611 40.6112 66.2231 40.9631V41.2145ZM75.6754 41.2145H76.1279V40.2089L75.6754 41.2145Z" fill="#33658A"/>
<path d="M53.4976 39.5778V45.2267H26.4065V39.5778H32.499C31.7301 38.1385 31.0498 36.709 30.4583 35.2894C29.8865 33.8697 29.3936 32.3417 28.9796 30.7052L35.3974 29.5813H26.9389V24.2281H36.2847V22.8677H43.6194V24.2281H52.9653V29.5813H44.6841L50.6584 31.2967C50.0274 33.0712 49.4655 34.55 48.9726 35.733C48.4994 36.916 48.2036 37.6455 48.0853 37.9216C47.8684 38.3751 47.6318 38.9272 47.3755 39.5778H53.4976ZM35.5749 29.5813C36.0087 31.6516 36.472 33.2684 36.9649 34.4317C37.4579 35.595 38.2761 37.0442 39.4197 38.7793L37.7339 39.5778H40.7506C41.5196 37.5272 42.1308 35.7626 42.5843 34.2838C43.0575 32.805 43.5011 31.2375 43.9152 29.5813H35.5749Z" fill="#33658A"/>
<path d="M8.89926 27.0869H11.1115V26.1819H14.9075V27.0869H17.2706V26.1819H21.2929V27.0869H23.3291V31.1594H21.2929V31.8885H17.2706V31.1594H14.9075V31.8885H11.1115V31.1594H8.89926V27.0869ZM9.35176 32.2907H22.8515V45.5893H18.5024V45.2374H13.726V45.5893H9.35176V32.2907ZM14.6058 36.7152V35.8353H13.726V36.7152H14.6058ZM17.5974 36.7152H18.5024V35.8353H17.5974V36.7152ZM14.6058 40.3101H13.726V41.3408H14.6058V40.3101ZM17.5974 41.3408H18.5024V40.3101H17.5974V41.3408ZM3.84629 44.9105H0V26.7349H8.34619V44.3575H3.84629V44.9105ZM4.44963 39.6062V30.8326H3.84629V39.6062H4.44963Z" fill="#33658A"/>
<path d="M34.9019 8.66699C33.5627 8.91048 31.9215 10.4147 30.7682 11.0999C28.3615 12.53 25.6973 13.5372 23.0679 14.4777C18.9594 15.9471 14.8313 17.3572 10.667 18.6586" stroke="#F8D84A" stroke-width="3" stroke-linecap="round"/>
<path d="M37.3154 2C37.6677 2.04404 38.2493 2.68426 38.5201 2.89759C40.1035 4.14515 41.5831 5.51566 43.256 6.65328C46.0293 8.53912 49.3279 10.1857 52.5508 11.094C54.2213 11.5648 55.7478 12.4308 57.3576 13.0663C60.3733 14.2567 63.4956 15.0824 66.5933 16.0189C68.7202 16.6619 71.0035 17.3062 73.2425 17.3062" stroke="#F8D84A" stroke-width="3" stroke-linecap="round"/>
</svg>
