<svg width="24" height="24" viewBox="0 0 24 24" fill="none" xmlns="http://www.w3.org/2000/svg">
<path d="M22.0021 12.0016C22.0021 6.47785 17.5243 2 12.0006 2C6.47686 2 1.99902 6.47785 1.99902 12.0016C1.99902 17.5253 6.47686 22.0031 12.0006 22.0031C17.5243 22.0031 22.0021 17.5253 22.0021 12.0016ZM7.75172 10.0015C7.75172 9.31152 8.31105 8.75219 9.00101 8.75219C9.69098 8.75219 10.2503 9.31152 10.2503 10.0015C10.2503 10.6914 9.69098 11.2508 9.00101 11.2508C8.31105 11.2508 7.75172 10.6914 7.75172 10.0015ZM13.7517 10.0015C13.7517 9.31152 14.3111 8.75219 15.001 8.75219C15.691 8.75219 16.2503 9.31152 16.2503 10.0015C16.2503 10.6914 15.691 11.2508 15.001 11.2508C14.3111 11.2508 13.7517 10.6914 13.7517 10.0015ZM10.1364 15.1079C10.6195 15.3978 11.2911 15.5635 12.0005 15.5635C12.7099 15.5635 13.3815 15.3978 13.8647 15.108C14.2199 14.8949 14.6806 15.0101 14.8937 15.3653C15.1067 15.7205 14.9915 16.1812 14.6363 16.3943C13.8695 16.8543 12.9161 17.0635 12.0005 17.0635C11.0849 17.0635 10.1315 16.8542 9.36461 16.3941C9.00942 16.181 8.89425 15.7203 9.10736 15.3651C9.32047 15.0099 9.78117 14.8947 10.1364 15.1079Z" fill="#33658A"/>
</svg>
